<svg xmlns="http://www.w3.org/2000/svg" xmlns:xlink="http://www.w3.org/1999/xlink" width="500" zoomAndPan="magnify" viewBox="0 0 375 374.999991" height="500" preserveAspectRatio="xMidYMid meet" version="1.0"><defs><g/><clipPath id="id1"><path d="M 41.589844 226 L 63 226 L 63 253 L 41.589844 253 Z M 41.589844 226 " clip-rule="nonzero"/></clipPath></defs><path fill="rgb(87.838745%, 78.42865%, 43.528748%)" d="M 122.835938 178.03125 C 123.523438 174.492188 123.679688 170.769531 122.621094 167.324219 C 121.558594 163.859375 119.316406 160.855469 116.707031 158.339844 C 107.75 149.714844 94.210938 147.746094 82.253906 150.652344 C 88.5 140.785156 99.386719 135.289062 109.949219 130.285156 C 116.027344 127.410156 122.328125 124.503906 129.046875 124.261719 C 135.578125 124.027344 141.910156 126.328125 147.992188 128.71875 C 152.746094 130.589844 157.675781 132.675781 160.917969 136.617188 C 164.460938 140.917969 165.429688 146.734375 165.984375 152.277344 C 166.769531 160.117188 166.964844 168.191406 164.605469 175.707031 C 160.277344 189.5 148.222656 199.214844 136.78125 208.070312 C 135.222656 209.277344 133.492188 210.546875 131.515625 210.515625 C 131.515625 210.515625 131.511719 210.515625 131.511719 210.515625 C 125.867188 210.421875 116.964844 203.398438 116.386719 197.59375 C 115.742188 191.128906 121.609375 184.316406 122.835938 178.03125 Z M 122.835938 178.03125 " fill-opacity="1" fill-rule="nonzero"/><path fill="rgb(90.589905%, 62.748718%, 20.779419%)" d="M 116.707031 158.339844 C 107.796875 149.757812 93.96875 146.683594 82.253906 150.652344 C 78.277344 162.113281 79.449219 174.917969 82.386719 186.769531 C 84 193.285156 90.363281 200.539062 97.140625 192.03125 C 103.21875 186.496094 94.210938 172.980469 122.382812 166.617188 C 121.246094 163.449219 119.136719 160.679688 116.707031 158.339844 Z M 116.707031 158.339844 " fill-opacity="1" fill-rule="nonzero"/><path fill="rgb(99.609375%, 79.219055%, 22.349548%)" d="M 122.382812 192.867188 C 121.078125 194.59375 123.230469 175.445312 123.230469 175.445312 C 114.453125 213.050781 72.265625 235.21875 66.238281 234.554688 C 61.015625 233.976562 56.789062 228.757812 51.503906 233.5 C 48.390625 236.292969 47.949219 241.570312 50.558594 244.839844 C 53.222656 248.179688 57.976562 249 61.292969 251.695312 C 63.546875 253.527344 65.964844 255.484375 67.136719 258.140625 C 74.710938 275.308594 136.527344 288.457031 183.371094 211.722656 C 185.726562 207.863281 191.238281 194.515625 193.453125 188.210938 C 191.117188 186.289062 188.65625 180.339844 185.972656 178.851562 C 162.082031 165.585938 136.421875 174.261719 122.382812 192.867188 Z M 122.382812 192.867188 " fill-opacity="1" fill-rule="nonzero"/><path fill="rgb(82.749939%, 61.178589%, 19.219971%)" d="M 184.832031 203.757812 C 182.425781 205.988281 180.1875 208.367188 178.003906 210.8125 C 174.070312 215.207031 169.601562 219.066406 165.4375 223.230469 C 161.136719 227.527344 157.527344 232.417969 153.246094 236.738281 C 148.859375 241.160156 144.140625 245.261719 139.355469 249.25 C 135.070312 252.828125 130.527344 256.039062 125.511719 258.515625 C 108.71875 266.804688 88.164062 269.230469 70.492188 262.652344 C 85.816406 276.957031 140.78125 281.488281 183.371094 211.722656 C 184.625 209.667969 186.773438 204.925781 188.84375 199.984375 C 187.4375 201.222656 186.097656 202.585938 184.832031 203.757812 Z M 184.832031 203.757812 " fill-opacity="1" fill-rule="nonzero"/><path fill="rgb(100%, 84.309387%, 40.388489%)" d="M 154.929688 199.339844 C 153.691406 197.402344 151.402344 198.066406 149.796875 199.15625 C 143.953125 203.132812 138.382812 207.253906 132.144531 210.636719 C 128.808594 212.445312 125.535156 214.464844 121.632812 214.398438 C 118.46875 214.347656 115.929688 215.375 113.242188 216.988281 C 107.550781 220.410156 102.5 225.15625 96.214844 227.527344 C 92.839844 228.796875 89.179688 228.769531 85.769531 229.890625 C 83.445312 230.660156 81.484375 232.027344 79.640625 233.605469 C 77.3125 235.59375 73.160156 240.039062 77.546875 242.265625 C 77.632812 242.308594 77.71875 242.339844 77.804688 242.359375 C 79.898438 243.09375 82.578125 241.886719 84.542969 241.28125 C 87.535156 240.359375 90.460938 239.222656 93.304688 237.90625 C 99.394531 235.085938 104.691406 230.429688 111.007812 228.15625 C 113.847656 227.132812 118.351562 226.265625 120.101562 229.535156 C 121.84375 232.800781 119.585938 236.675781 117.457031 239.152344 C 112.933594 244.40625 105.992188 245.679688 99.613281 247.449219 C 95.597656 248.566406 91.566406 249.617188 87.488281 250.472656 C 83.867188 251.230469 80.078125 251.53125 76.773438 253.308594 C 76.265625 253.582031 76.0625 254.328125 76.378906 254.8125 C 78.574219 258.226562 83.511719 257.539062 86.972656 257.148438 C 90.820312 256.714844 94.578125 255.839844 98.308594 254.839844 C 98.019531 255.339844 98.144531 256.078125 98.695312 256.355469 C 101.15625 257.589844 103.59375 256.933594 105.960938 255.78125 C 109.214844 254.195312 112.347656 252.304688 115.488281 250.515625 C 121.378906 247.15625 127.34375 243.804688 132.792969 239.757812 C 137.742188 236.085938 142.148438 231.800781 145.382812 226.527344 C 148.96875 220.679688 152.21875 214.265625 154.339844 207.738281 C 155.101562 205.40625 156.417969 201.667969 154.929688 199.339844 Z M 154.929688 199.339844 " fill-opacity="1" fill-rule="nonzero"/><path fill="rgb(66.668701%, 41.958618%, 14.898682%)" d="M 71.398438 248.671875 C 81.320312 249.652344 91.246094 247.226562 100.195312 243.027344 C 109.113281 238.839844 117.046875 232.832031 124.375 226.316406 C 128.648438 222.515625 132.753906 218.53125 136.855469 214.546875 C 137.78125 213.652344 136.367188 212.242188 135.441406 213.136719 C 128.433594 219.941406 121.410156 226.816406 113.523438 232.625 C 105.738281 238.359375 97.113281 243.085938 87.671875 245.417969 C 82.351562 246.730469 76.859375 247.21875 71.398438 246.679688 C 70.121094 246.550781 70.128906 248.546875 71.398438 248.671875 Z M 71.398438 248.671875 " fill-opacity="1" fill-rule="nonzero"/><path fill="rgb(66.668701%, 41.958618%, 14.898682%)" d="M 70.589844 257.621094 C 78.4375 261.519531 87.085938 262.65625 95.738281 261.503906 C 102.855469 260.558594 109.886719 258.480469 116.664062 256.15625 C 127.410156 252.472656 137.699219 247.410156 146.578125 240.277344 C 155.210938 233.339844 162.15625 224.566406 167.523438 214.917969 C 174.542969 202.308594 179.503906 188.347656 181.9375 174.132812 C 184.828125 157.21875 184.605469 139.980469 184.023438 122.894531 C 183.953125 120.835938 183.875 118.777344 183.800781 116.71875 C 183.753906 115.4375 181.753906 115.433594 181.800781 116.71875 C 182.429688 133.550781 183.027344 150.492188 180.945312 167.25 C 179.117188 181.96875 174.753906 196.25 168.117188 209.519531 C 163.164062 219.421875 156.757812 228.589844 148.5 236.027344 C 140.449219 243.277344 130.886719 248.632812 120.804688 252.53125 C 114.898438 254.816406 108.804688 256.691406 102.644531 258.171875 C 94.238281 260.195312 85.582031 260.796875 77.234375 258.175781 C 75.296875 257.5625 73.417969 256.800781 71.597656 255.898438 C 70.449219 255.332031 69.433594 257.050781 70.589844 257.621094 Z M 70.589844 257.621094 " fill-opacity="1" fill-rule="nonzero"/><path fill="rgb(66.668701%, 41.958618%, 14.898682%)" d="M 149.910156 99.089844 C 149.730469 118.089844 147 137.035156 141.789062 155.3125 C 140.503906 159.824219 139.070312 164.292969 137.484375 168.710938 C 135.917969 173.066406 134.167969 177.367188 131.917969 181.421875 C 129.636719 185.535156 126.835938 189.335938 123.882812 192.992188 C 120.925781 196.652344 117.863281 200.230469 114.726562 203.738281 C 108.039062 211.222656 100.9375 218.332031 93.503906 225.082031 C 92.550781 225.945312 93.96875 227.355469 94.917969 226.492188 C 101.585938 220.433594 107.992188 214.09375 114.070312 207.441406 C 117.300781 203.902344 120.445312 200.28125 123.5 196.59375 C 126.488281 192.984375 129.414062 189.300781 131.917969 185.335938 C 136.96875 177.339844 140.019531 168.152344 142.742188 159.152344 C 145.519531 149.976562 147.675781 140.609375 149.195312 131.140625 C 150.894531 120.539062 151.804688 109.820312 151.90625 99.085938 C 151.921875 97.804688 149.921875 97.804688 149.910156 99.089844 Z M 149.910156 99.089844 " fill-opacity="1" fill-rule="nonzero"/><g clip-path="url(#id1)"><path fill="rgb(46.669006%, 12.159729%, 5.488586%)" d="M 43.679688 230.96875 C 43.164062 234.066406 42.644531 237.164062 42.125 240.265625 C 41.996094 241.035156 41.867188 241.820312 41.941406 242.597656 C 42.128906 244.539062 43.726562 246.257812 45.652344 246.59375 C 46.855469 246.800781 48.121094 246.519531 49.289062 246.871094 C 50.261719 247.160156 51.054688 247.863281 51.992188 248.246094 C 54.546875 249.296875 60.261719 251.636719 62.757812 252.8125 C 61.410156 252.175781 59.929688 234.003906 58.433594 231.839844 C 56.050781 228.386719 43.539062 222.890625 43.679688 230.96875 Z M 43.679688 230.96875 " fill-opacity="1" fill-rule="nonzero"/></g><path fill="rgb(90.589905%, 62.748718%, 20.779419%)" d="M 65.789062 250.699219 C 66.65625 247.859375 67.554688 245.050781 68.179688 242.148438 C 68.183594 242.125 68.1875 242.105469 68.191406 242.085938 C 68.226562 241.523438 68.289062 240.960938 68.3125 240.398438 C 68.363281 239.066406 70.523438 233.667969 70.46875 233.40625 C 70.082031 233.472656 67.058594 233.882812 66.800781 233.855469 C 61.3125 233.25 56.875 227.765625 51.320312 232.746094 C 48.046875 235.683594 47.585938 241.226562 50.324219 244.664062 C 53.125 248.171875 58.121094 249.03125 61.605469 251.863281 C 62.671875 252.730469 63.765625 253.625 64.761719 254.597656 C 65.050781 253.292969 65.394531 251.996094 65.789062 250.699219 Z M 65.789062 250.699219 " fill-opacity="1" fill-rule="nonzero"/><path fill="rgb(99.609375%, 96.078491%, 71.759033%)" d="M 150.910156 178.007812 C 150.910156 178.007812 175.613281 186.210938 180.8125 181.804688 C 183.152344 179.824219 191.113281 182.523438 193.453125 184.449219 C 202.921875 168.222656 206.382812 94.832031 170.496094 67.414062 C 166.539062 64.390625 141.421875 50.710938 139.574219 81.183594 C 138.992188 90.792969 136.148438 152.980469 119.882812 193.882812 C 122.242188 193.691406 148.550781 178.03125 150.910156 178.007812 Z M 150.910156 178.007812 " fill-opacity="1" fill-rule="nonzero"/><path fill="rgb(87.059021%, 78.819275%, 43.139648%)" d="M 149.019531 68.878906 C 146.574219 73.824219 146.035156 79.34375 146.152344 84.792969 C 146.28125 90.6875 146.871094 96.578125 147.160156 102.464844 C 147.769531 114.898438 147.921875 127.355469 147.621094 139.800781 C 147.453125 146.828125 147.136719 153.847656 146.679688 160.859375 C 146.585938 162.277344 148.792969 162.269531 148.886719 160.859375 C 149.6875 148.589844 150.050781 136.289062 149.964844 123.992188 C 149.925781 117.816406 149.769531 111.644531 149.503906 105.476562 C 149.25 99.554688 148.785156 93.648438 148.472656 87.730469 C 148.15625 81.753906 148.210938 75.476562 150.921875 69.988281 C 151.550781 68.722656 149.648438 67.605469 149.019531 68.878906 Z M 149.019531 68.878906 " fill-opacity="1" fill-rule="nonzero"/><path fill="rgb(87.059021%, 78.819275%, 43.139648%)" d="M 152.941406 67.707031 C 156.023438 73.335938 157.546875 79.878906 158.628906 86.160156 C 158.722656 86.703125 158.816406 87.246094 158.890625 87.792969 C 158.976562 88.386719 159.726562 88.699219 160.25 88.5625 C 160.886719 88.394531 161.101562 87.792969 161.019531 87.207031 C 160.320312 82.199219 159.109375 77.164062 157.402344 72.40625 C 156.6875 70.414062 155.863281 68.453125 154.847656 66.59375 C 154.164062 65.351562 152.257812 66.460938 152.941406 67.707031 Z M 152.941406 67.707031 " fill-opacity="1" fill-rule="nonzero"/><path fill="rgb(87.059021%, 78.819275%, 43.139648%)" d="M 157.523438 66.769531 C 166.074219 73.792969 172.832031 82.96875 176.921875 93.25 C 178.074219 96.15625 179.019531 99.140625 179.75 102.179688 C 180.082031 103.554688 182.210938 102.972656 181.878906 101.59375 C 179.214844 90.546875 173.703125 80.242188 166.058594 71.835938 C 163.898438 69.460938 161.566406 67.25 159.085938 65.210938 C 157.996094 64.320312 156.425781 65.871094 157.523438 66.769531 Z M 157.523438 66.769531 " fill-opacity="1" fill-rule="nonzero"/><path fill="rgb(87.059021%, 78.819275%, 43.139648%)" d="M 181.980469 111.570312 C 184.289062 120.308594 185.667969 129.289062 186.589844 138.269531 C 187.429688 146.476562 187.914062 154.753906 187.777344 163.003906 C 187.746094 164.734375 187.6875 166.460938 187.570312 168.183594 C 187.519531 168.898438 187.460938 169.613281 187.386719 170.324219 C 187.3125 171.054688 187.261719 171.457031 187.164062 172.074219 C 187.070312 172.667969 187.316406 173.253906 187.933594 173.429688 C 188.457031 173.582031 189.199219 173.246094 189.292969 172.660156 C 190.300781 166.265625 190.101562 159.625 189.851562 153.179688 C 189.5 144.085938 188.632812 134.996094 187.207031 126.003906 C 186.40625 120.957031 185.414062 115.929688 184.109375 110.984375 C 183.75 109.613281 181.621094 110.195312 181.980469 111.570312 Z M 181.980469 111.570312 " fill-opacity="1" fill-rule="nonzero"/><path fill="rgb(87.059021%, 78.819275%, 43.139648%)" d="M 161.113281 95.386719 C 163.828125 106.917969 165.632812 118.648438 166.503906 130.460938 C 166.605469 131.867188 168.8125 131.878906 168.710938 130.460938 C 167.824219 118.453125 166 106.519531 163.242188 94.800781 C 162.917969 93.421875 160.789062 94.003906 161.113281 95.386719 Z M 161.113281 95.386719 " fill-opacity="1" fill-rule="nonzero"/><path fill="rgb(87.059021%, 78.819275%, 43.139648%)" d="M 166.960938 139.804688 C 167.625 143.847656 167.789062 147.957031 167.507812 152.042969 C 167.410156 153.457031 169.617188 153.453125 169.714844 152.042969 C 170.011719 147.753906 169.785156 143.460938 169.085938 139.21875 C 168.992188 138.632812 168.261719 138.304688 167.730469 138.449219 C 167.105469 138.621094 166.863281 139.214844 166.960938 139.804688 Z M 166.960938 139.804688 " fill-opacity="1" fill-rule="nonzero"/><path fill="rgb(87.059021%, 78.819275%, 43.139648%)" d="M 167.035156 159.644531 C 166.953125 160.671875 166.875 161.699219 166.796875 162.722656 C 166.777344 162.992188 166.933594 163.320312 167.121094 163.503906 C 167.3125 163.695312 167.625 163.839844 167.898438 163.824219 C 168.183594 163.8125 168.480469 163.71875 168.679688 163.503906 C 168.886719 163.277344 168.980469 163.03125 169.003906 162.722656 C 169.082031 161.699219 169.160156 160.671875 169.238281 159.644531 C 169.261719 159.375 169.101562 159.050781 168.917969 158.863281 C 168.726562 158.675781 168.410156 158.53125 168.136719 158.542969 C 167.851562 158.554688 167.554688 158.648438 167.355469 158.863281 C 167.148438 159.089844 167.054688 159.339844 167.035156 159.644531 Z M 167.035156 159.644531 " fill-opacity="1" fill-rule="nonzero"/><path fill="rgb(87.838745%, 78.42865%, 43.528748%)" d="M 221.78125 187.414062 C 220.488281 179.714844 219.152344 161.269531 197.007812 173.550781 C 183.382812 181.113281 171.277344 174.222656 158.304688 174.734375 C 134.132812 175.683594 120.605469 192.03125 120.605469 192.03125 C 141.410156 201.71875 193.453125 188.214844 193.453125 213.84375 C 206.5 213.839844 223.921875 200.171875 221.78125 187.414062 Z M 221.78125 187.414062 " fill-opacity="1" fill-rule="nonzero"/><path fill="rgb(76.469421%, 66.668701%, 8.239746%)" d="M 228.886719 210.519531 L 228.890625 210.515625 Z M 228.886719 210.519531 " fill-opacity="1" fill-rule="nonzero"/><path fill="rgb(87.449646%, 79.219055%, 54.119873%)" d="M 221.9375 184.296875 C 219.355469 172.195312 183.417969 191.242188 188.898438 203.457031 C 196.691406 220.816406 187.125 219.039062 172.605469 235.652344 C 154.660156 256.179688 183.046875 246.40625 183.046875 246.40625 C 219.4375 230.414062 225.460938 202.339844 221.9375 184.296875 Z M 221.9375 184.296875 " fill-opacity="1" fill-rule="nonzero"/><path fill="rgb(99.609375%, 79.219055%, 22.349548%)" d="M 231.8125 210.519531 L 231.816406 210.515625 Z M 231.8125 210.519531 " fill-opacity="1" fill-rule="nonzero"/><path fill="rgb(99.609375%, 79.219055%, 22.349548%)" d="M 174.117188 244.65625 C 175.964844 242.621094 177.976562 240.742188 180.03125 238.921875 C 181.941406 237.226562 183.902344 235.589844 185.820312 233.90625 C 187.429688 232.496094 188.992188 231.066406 190.289062 229.359375 C 192.28125 226.738281 194.058594 223.902344 195.292969 220.839844 C 196.320312 218.28125 196.984375 215.515625 196.78125 212.742188 C 196.589844 210.136719 195.539062 207.683594 193.777344 205.746094 C 192.289062 204.113281 190.429688 202.890625 188.4375 201.945312 C 188.527344 202.457031 188.675781 202.964844 188.898438 203.457031 C 196.6875 220.816406 187.121094 219.039062 172.601562 235.652344 C 163.742188 245.789062 166.179688 248.535156 170.914062 248.71875 C 171.859375 247.273438 172.964844 245.929688 174.117188 244.65625 Z M 174.117188 244.65625 " fill-opacity="1" fill-rule="nonzero"/><path stroke-linecap="butt" transform="matrix(3.741841, 0.000000000000004935, -0.000000000000004946, 3.75, 183.797145, 111.003149)" fill="none" stroke-linejoin="miter" d="M -0.0000722186 0.00020201 L 8.620767 0.00020201 " stroke="rgb(0%, 0%, 0%)" stroke-width="1" stroke-opacity="1" stroke-miterlimit="4"/><path stroke-linecap="butt" transform="matrix(0.000000000000000228, -3.728599, 3.75, 0.00000000000000023, 216.123446, 112.877695)" fill="none" stroke-linejoin="miter" d="M -0.000324857 0.000414318 L 9.856973 0.000414318 " stroke="rgb(0%, 0%, 0%)" stroke-width="1" stroke-opacity="1" stroke-miterlimit="4"/><path stroke-linecap="butt" transform="matrix(3.762861, 0, 0, 3.75, 214.248931, 77.791284)" fill="none" stroke-linejoin="miter" d="M 0.000284031 0.000449349 L 19.134662 0.000449349 " stroke="rgb(0%, 0%, 0%)" stroke-width="1" stroke-opacity="1" stroke-miterlimit="4"/><path stroke-linecap="butt" transform="matrix(3.746622, 0, 0, 3.75, 198.085523, 220.71186)" fill="none" stroke-linejoin="miter" d="M 0.000110715 -0.000245975 L 20.819905 -0.000245975 " stroke="rgb(0%, 0%, 0%)" stroke-width="1" stroke-opacity="1" stroke-miterlimit="4"/><path stroke-linecap="butt" transform="matrix(3.762861, 0, 0, 3.75, 128.20605, 185.624988)" fill="none" stroke-linejoin="miter" d="M 0.000260857 0.0000032505 L 19.134638 0.0000032505 " stroke="rgb(0%, 0%, 0%)" stroke-width="1" stroke-opacity="1" stroke-miterlimit="4"/><path stroke-linecap="butt" transform="matrix(0.000000000000000228, -3.728599, 3.75, 0.00000000000000023, 198.085069, 222.586377)" fill="none" stroke-linejoin="miter" d="M 0.000117976 0.000231575 L 9.856368 0.000231575 " stroke="rgb(0%, 0%, 0%)" stroke-width="1" stroke-opacity="1" stroke-miterlimit="4"/><path stroke-linecap="butt" transform="matrix(3.743641, 0, 0, 3.75, 164.083295, 153.400317)" fill="none" stroke-linejoin="miter" d="M -0.000337446 -0.000501234 L 27.648628 -0.000501234 " stroke="rgb(0%, 0%, 0%)" stroke-width="1" stroke-opacity="1" stroke-miterlimit="4"/><g fill="rgb(0%, 0%, 0%)" fill-opacity="1"><g transform="translate(189.590397, 346.680035)"><g><path d="M 10.640625 -16.5 L 10.640625 -13.203125 L 4.953125 -13.203125 L 4.953125 -9.921875 L 10.40625 -9.921875 L 10.40625 -6.625 L 4.953125 -6.625 L 4.953125 -3.296875 L 10.640625 -3.296875 L 10.640625 0 L 1.203125 0 L 1.203125 -16.5 Z M 10.640625 -16.5 "/></g></g></g><g fill="rgb(0%, 0%, 0%)" fill-opacity="1"><g transform="translate(202.185826, 346.680035)"><g><path d="M 1.203125 -16.5 L 7.21875 -16.5 C 8.894531 -16.5 10.253906 -16.066406 11.296875 -15.203125 C 12.335938 -14.335938 12.859375 -13.078125 12.859375 -11.421875 C 12.859375 -9.765625 12.332031 -8.46875 11.28125 -7.53125 C 10.226562 -6.59375 8.875 -6.125 7.21875 -6.125 L 4.953125 -6.125 L 4.953125 0 L 1.203125 0 Z M 4.953125 -9.125 L 6.015625 -9.125 C 6.859375 -9.125 7.550781 -9.289062 8.09375 -9.625 C 8.632812 -9.96875 8.90625 -10.523438 8.90625 -11.296875 C 8.90625 -12.085938 8.632812 -12.648438 8.09375 -12.984375 C 7.550781 -13.328125 6.859375 -13.5 6.015625 -13.5 L 4.953125 -13.5 Z M 4.953125 -9.125 "/></g></g></g><g fill="rgb(0%, 0%, 0%)" fill-opacity="1"><g transform="translate(216.500571, 346.680035)"><g><path d="M 4.953125 -16.5 L 4.953125 0 L 1.203125 0 L 1.203125 -16.5 Z M 4.953125 -16.5 "/></g></g></g><g fill="rgb(0%, 0%, 0%)" fill-opacity="1"><g transform="translate(223.658146, 346.680035)"><g><path d="M 9.984375 -3.40625 C 10.554688 -3.40625 11.109375 -3.488281 11.640625 -3.65625 C 12.179688 -3.832031 12.582031 -4 12.84375 -4.15625 L 13.21875 -4.421875 L 14.8125 -1.21875 C 14.757812 -1.175781 14.6875 -1.117188 14.59375 -1.046875 C 14.5 -0.984375 14.28125 -0.863281 13.9375 -0.6875 C 13.601562 -0.507812 13.242188 -0.351562 12.859375 -0.21875 C 12.472656 -0.0820312 11.96875 0.0351562 11.34375 0.140625 C 10.71875 0.242188 10.070312 0.296875 9.40625 0.296875 C 7.863281 0.296875 6.40625 -0.078125 5.03125 -0.828125 C 3.664062 -1.578125 2.5625 -2.613281 1.71875 -3.9375 C 0.875 -5.257812 0.453125 -6.6875 0.453125 -8.21875 C 0.453125 -9.375 0.695312 -10.484375 1.1875 -11.546875 C 1.6875 -12.617188 2.347656 -13.535156 3.171875 -14.296875 C 3.992188 -15.054688 4.953125 -15.660156 6.046875 -16.109375 C 7.140625 -16.566406 8.257812 -16.796875 9.40625 -16.796875 C 10.46875 -16.796875 11.445312 -16.671875 12.34375 -16.421875 C 13.25 -16.171875 13.890625 -15.914062 14.265625 -15.65625 L 14.8125 -15.28125 L 13.21875 -12.078125 C 13.125 -12.160156 12.984375 -12.257812 12.796875 -12.375 C 12.609375 -12.488281 12.234375 -12.632812 11.671875 -12.8125 C 11.117188 -13 10.554688 -13.09375 9.984375 -13.09375 C 9.078125 -13.09375 8.257812 -12.945312 7.53125 -12.65625 C 6.8125 -12.363281 6.242188 -11.976562 5.828125 -11.5 C 5.410156 -11.019531 5.09375 -10.503906 4.875 -9.953125 C 4.65625 -9.398438 4.546875 -8.835938 4.546875 -8.265625 C 4.546875 -7.003906 5.015625 -5.878906 5.953125 -4.890625 C 6.890625 -3.898438 8.234375 -3.40625 9.984375 -3.40625 Z M 9.984375 -3.40625 "/></g></g></g><g fill="rgb(0%, 0%, 0%)" fill-opacity="1"><g transform="translate(239.712208, 346.680035)"><g><path d="M 9.578125 -16.5 L 16.234375 0 L 12.203125 0 L 10.984375 -3.296875 L 4.703125 -3.296875 L 3.484375 0 L -0.5625 0 L 6.09375 -16.5 Z M 9.703125 -6.59375 L 7.859375 -11.40625 L 7.8125 -11.40625 L 5.984375 -6.59375 Z M 9.703125 -6.59375 "/></g></g></g><g fill="rgb(0%, 0%, 0%)" fill-opacity="1"><g transform="translate(256.386026, 346.680035)"><g><path d="M 1.203125 -16.5 L 7.09375 -16.5 C 8.6875 -16.5 9.984375 -16.070312 10.984375 -15.21875 C 11.984375 -14.375 12.484375 -13.164062 12.484375 -11.59375 C 12.484375 -10.382812 12.175781 -9.367188 11.5625 -8.546875 C 10.957031 -7.722656 10.132812 -7.144531 9.09375 -6.8125 L 14.78125 0 L 10 0 L 4.953125 -6.515625 L 4.953125 0 L 1.203125 0 Z M 4.953125 -9.1875 L 5.40625 -9.1875 C 5.75 -9.1875 6.039062 -9.191406 6.28125 -9.203125 C 6.519531 -9.210938 6.789062 -9.253906 7.09375 -9.328125 C 7.40625 -9.410156 7.65625 -9.523438 7.84375 -9.671875 C 8.03125 -9.828125 8.1875 -10.039062 8.3125 -10.3125 C 8.445312 -10.59375 8.515625 -10.929688 8.515625 -11.328125 C 8.515625 -11.734375 8.445312 -12.078125 8.3125 -12.359375 C 8.1875 -12.640625 8.03125 -12.851562 7.84375 -13 C 7.65625 -13.144531 7.40625 -13.253906 7.09375 -13.328125 C 6.789062 -13.410156 6.519531 -13.457031 6.28125 -13.46875 C 6.039062 -13.488281 5.75 -13.5 5.40625 -13.5 L 4.953125 -13.5 Z M 4.953125 -9.1875 "/></g></g></g><g fill="rgb(0%, 0%, 0%)" fill-opacity="1"><g transform="translate(271.700377, 346.680035)"><g><path d="M 1.203125 -16.5 L 7.21875 -16.5 C 8.894531 -16.5 10.253906 -16.066406 11.296875 -15.203125 C 12.335938 -14.335938 12.859375 -13.078125 12.859375 -11.421875 C 12.859375 -9.765625 12.332031 -8.46875 11.28125 -7.53125 C 10.226562 -6.59375 8.875 -6.125 7.21875 -6.125 L 4.953125 -6.125 L 4.953125 0 L 1.203125 0 Z M 4.953125 -9.125 L 6.015625 -9.125 C 6.859375 -9.125 7.550781 -9.289062 8.09375 -9.625 C 8.632812 -9.96875 8.90625 -10.523438 8.90625 -11.296875 C 8.90625 -12.085938 8.632812 -12.648438 8.09375 -12.984375 C 7.550781 -13.328125 6.859375 -13.5 6.015625 -13.5 L 4.953125 -13.5 Z M 4.953125 -9.125 "/></g></g></g><g fill="rgb(0%, 0%, 0%)" fill-opacity="1"><g transform="translate(237.31214, 317.994967)"><g/></g></g><path stroke-linecap="butt" transform="matrix(3.743002, 0, 0, 3.75, 92.172514, 339.374978)" fill="none" stroke-linejoin="miter" d="M -0.000170838 0.00000594283 L 23.444624 0.00000594283 " stroke="rgb(0%, 0%, 0%)" stroke-width="1" stroke-opacity="1" stroke-miterlimit="4"/><path stroke-linecap="butt" transform="matrix(0.000000000000003549, -3.738317, 3.75, 0.00000000000000356, 94.045179, 341.247633)" fill="none" stroke-linejoin="miter" d="M 0.000411694 0.000452234 L 25.079584 0.000452234 " stroke="rgb(0%, 0%, 0%)" stroke-width="1" stroke-opacity="1" stroke-miterlimit="4"/><g fill="rgb(0%, 0%, 0%)" fill-opacity="1"><g transform="translate(282.227189, 225.086658)"><g><path d="M 10.140625 0 L 9.59375 -6.671875 L 9.53125 -6.671875 L 7.21875 -0.0625 L 5.6875 -0.0625 L 3.390625 -6.671875 L 3.3125 -6.671875 L 2.78125 0 L 0.21875 0 L 1.234375 -11.265625 L 3.953125 -11.265625 L 6.453125 -4.765625 L 8.953125 -11.265625 L 11.6875 -11.265625 L 12.703125 0 Z M 10.140625 0 "/></g></g></g><g fill="rgb(0%, 0%, 0%)" fill-opacity="1"><g transform="translate(295.820511, 225.086658)"><g><path d="M 7.265625 -11.265625 L 7.265625 -9.015625 L 3.390625 -9.015625 L 3.390625 -6.78125 L 7.09375 -6.78125 L 7.09375 -4.515625 L 3.390625 -4.515625 L 3.390625 -2.25 L 7.265625 -2.25 L 7.265625 0 L 0.8125 0 L 0.8125 -11.265625 Z M 7.265625 -11.265625 "/></g></g></g><g fill="rgb(0%, 0%, 0%)" fill-opacity="1"><g transform="translate(304.418797, 225.086658)"><g><path d="M 4.96875 -11.46875 C 5.582031 -11.46875 6.179688 -11.378906 6.765625 -11.203125 C 7.347656 -11.023438 7.78125 -10.847656 8.0625 -10.671875 L 8.46875 -10.40625 L 7.421875 -8.359375 C 7.347656 -8.410156 7.238281 -8.476562 7.09375 -8.5625 C 6.945312 -8.65625 6.671875 -8.773438 6.265625 -8.921875 C 5.867188 -9.066406 5.492188 -9.140625 5.140625 -9.140625 C 4.710938 -9.140625 4.382812 -9.046875 4.15625 -8.859375 C 3.925781 -8.679688 3.8125 -8.4375 3.8125 -8.125 C 3.8125 -7.96875 3.863281 -7.820312 3.96875 -7.6875 C 4.082031 -7.5625 4.269531 -7.421875 4.53125 -7.265625 C 4.800781 -7.117188 5.035156 -7 5.234375 -6.90625 C 5.429688 -6.820312 5.738281 -6.6875 6.15625 -6.5 C 6.882812 -6.1875 7.503906 -5.765625 8.015625 -5.234375 C 8.535156 -4.703125 8.796875 -4.097656 8.796875 -3.421875 C 8.796875 -2.773438 8.675781 -2.210938 8.4375 -1.734375 C 8.207031 -1.253906 7.890625 -0.875 7.484375 -0.59375 C 7.078125 -0.320312 6.628906 -0.125 6.140625 0 C 5.648438 0.132812 5.117188 0.203125 4.546875 0.203125 C 4.054688 0.203125 3.570312 0.148438 3.09375 0.046875 C 2.625 -0.046875 2.226562 -0.164062 1.90625 -0.3125 C 1.59375 -0.46875 1.304688 -0.617188 1.046875 -0.765625 C 0.796875 -0.910156 0.609375 -1.035156 0.484375 -1.140625 L 0.3125 -1.28125 L 1.59375 -3.4375 C 1.707031 -3.351562 1.859375 -3.238281 2.046875 -3.09375 C 2.234375 -2.945312 2.570312 -2.753906 3.0625 -2.515625 C 3.550781 -2.285156 3.984375 -2.171875 4.359375 -2.171875 C 5.441406 -2.171875 5.984375 -2.539062 5.984375 -3.28125 C 5.984375 -3.4375 5.941406 -3.578125 5.859375 -3.703125 C 5.785156 -3.835938 5.648438 -3.96875 5.453125 -4.09375 C 5.253906 -4.226562 5.082031 -4.332031 4.9375 -4.40625 C 4.789062 -4.488281 4.546875 -4.609375 4.203125 -4.765625 C 3.859375 -4.929688 3.601562 -5.054688 3.4375 -5.140625 C 2.757812 -5.472656 2.234375 -5.890625 1.859375 -6.390625 C 1.484375 -6.898438 1.296875 -7.445312 1.296875 -8.03125 C 1.296875 -9.039062 1.664062 -9.863281 2.40625 -10.5 C 3.15625 -11.144531 4.007812 -11.46875 4.96875 -11.46875 Z M 4.96875 -11.46875 "/></g></g></g><g fill="rgb(0%, 0%, 0%)" fill-opacity="1"><g transform="translate(314.272664, 225.086658)"><g><path d="M 0.3125 -5.640625 C 0.3125 -7.265625 0.863281 -8.640625 1.96875 -9.765625 C 3.082031 -10.898438 4.425781 -11.46875 6 -11.46875 C 7.570312 -11.46875 8.90625 -10.90625 10 -9.78125 C 11.101562 -8.65625 11.65625 -7.273438 11.65625 -5.640625 C 11.65625 -3.992188 11.113281 -2.609375 10.03125 -1.484375 C 8.945312 -0.359375 7.601562 0.203125 6 0.203125 C 4.34375 0.203125 2.976562 -0.351562 1.90625 -1.46875 C 0.84375 -2.582031 0.3125 -3.972656 0.3125 -5.640625 Z M 3.09375 -5.640625 C 3.09375 -5.046875 3.179688 -4.503906 3.359375 -4.015625 C 3.535156 -3.535156 3.851562 -3.125 4.3125 -2.78125 C 4.769531 -2.445312 5.332031 -2.28125 6 -2.28125 C 6.945312 -2.28125 7.664062 -2.609375 8.15625 -3.265625 C 8.644531 -3.921875 8.890625 -4.710938 8.890625 -5.640625 C 8.890625 -6.554688 8.640625 -7.34375 8.140625 -8 C 7.648438 -8.664062 6.9375 -9 6 -9 C 5.070312 -9 4.351562 -8.664062 3.84375 -8 C 3.34375 -7.34375 3.09375 -6.554688 3.09375 -5.640625 Z M 3.09375 -5.640625 "/></g></g></g><g fill="rgb(0%, 0%, 0%)" fill-opacity="1"><g transform="translate(326.924296, 225.086658)"><g><path d="M 6.8125 -2.328125 C 7.207031 -2.328125 7.585938 -2.382812 7.953125 -2.5 C 8.316406 -2.613281 8.585938 -2.726562 8.765625 -2.84375 L 9.03125 -3.015625 L 10.125 -0.828125 C 10.082031 -0.804688 10.03125 -0.769531 9.96875 -0.71875 C 9.90625 -0.675781 9.753906 -0.59375 9.515625 -0.46875 C 9.285156 -0.34375 9.039062 -0.234375 8.78125 -0.140625 C 8.519531 -0.0546875 8.171875 0.0195312 7.734375 0.09375 C 7.304688 0.164062 6.867188 0.203125 6.421875 0.203125 C 5.367188 0.203125 4.375 -0.0507812 3.4375 -0.5625 C 2.5 -1.082031 1.742188 -1.789062 1.171875 -2.6875 C 0.597656 -3.59375 0.3125 -4.566406 0.3125 -5.609375 C 0.3125 -6.398438 0.476562 -7.160156 0.8125 -7.890625 C 1.15625 -8.617188 1.601562 -9.242188 2.15625 -9.765625 C 2.71875 -10.285156 3.375 -10.695312 4.125 -11 C 4.875 -11.3125 5.640625 -11.46875 6.421875 -11.46875 C 7.148438 -11.46875 7.820312 -11.378906 8.4375 -11.203125 C 9.050781 -11.035156 9.484375 -10.863281 9.734375 -10.6875 L 10.125 -10.4375 L 9.03125 -8.25 C 8.96875 -8.300781 8.867188 -8.363281 8.734375 -8.4375 C 8.609375 -8.519531 8.351562 -8.625 7.96875 -8.75 C 7.59375 -8.875 7.207031 -8.9375 6.8125 -8.9375 C 6.195312 -8.9375 5.640625 -8.835938 5.140625 -8.640625 C 4.648438 -8.441406 4.257812 -8.175781 3.96875 -7.84375 C 3.6875 -7.519531 3.46875 -7.171875 3.3125 -6.796875 C 3.164062 -6.421875 3.09375 -6.035156 3.09375 -5.640625 C 3.09375 -4.785156 3.414062 -4.019531 4.0625 -3.34375 C 4.707031 -2.664062 5.625 -2.328125 6.8125 -2.328125 Z M 6.8125 -2.328125 "/></g></g></g><g fill="rgb(0%, 0%, 0%)" fill-opacity="1"><g transform="translate(337.883623, 225.086658)"><g><path d="M 6.546875 -11.265625 L 11.09375 0 L 8.328125 0 L 7.5 -2.25 L 3.203125 -2.25 L 2.375 0 L -0.375 0 L 4.171875 -11.265625 Z M 6.625 -4.5 L 5.359375 -7.78125 L 5.34375 -7.78125 L 4.078125 -4.5 Z M 6.625 -4.5 "/></g></g></g><g fill="rgb(0%, 0%, 0%)" fill-opacity="1"><g transform="translate(349.266026, 225.086658)"><g><path d="M 0.8125 -11.265625 L 4.84375 -11.265625 C 5.925781 -11.265625 6.804688 -10.972656 7.484375 -10.390625 C 8.171875 -9.816406 8.515625 -8.992188 8.515625 -7.921875 C 8.515625 -7.085938 8.304688 -6.390625 7.890625 -5.828125 C 7.484375 -5.273438 6.925781 -4.882812 6.21875 -4.65625 L 10.09375 0 L 6.828125 0 L 3.390625 -4.453125 L 3.390625 0 L 0.8125 0 Z M 3.390625 -6.265625 L 3.6875 -6.265625 C 3.925781 -6.265625 4.125 -6.269531 4.28125 -6.28125 C 4.445312 -6.289062 4.632812 -6.320312 4.84375 -6.375 C 5.050781 -6.425781 5.21875 -6.503906 5.34375 -6.609375 C 5.476562 -6.710938 5.585938 -6.859375 5.671875 -7.046875 C 5.765625 -7.234375 5.8125 -7.460938 5.8125 -7.734375 C 5.8125 -8.015625 5.765625 -8.25 5.671875 -8.4375 C 5.585938 -8.625 5.476562 -8.769531 5.34375 -8.875 C 5.21875 -8.976562 5.050781 -9.054688 4.84375 -9.109375 C 4.632812 -9.160156 4.445312 -9.191406 4.28125 -9.203125 C 4.125 -9.210938 3.925781 -9.21875 3.6875 -9.21875 L 3.390625 -9.21875 Z M 3.390625 -6.265625 "/></g></g></g><g fill="rgb(0%, 0%, 0%)" fill-opacity="1"><g transform="translate(359.720391, 225.086658)"><g><path d="M 0.8125 -11.265625 L 4.9375 -11.265625 C 6.082031 -11.265625 7.007812 -10.96875 7.71875 -10.375 C 8.425781 -9.78125 8.78125 -8.921875 8.78125 -7.796875 C 8.78125 -6.671875 8.421875 -5.785156 7.703125 -5.140625 C 6.984375 -4.492188 6.0625 -4.171875 4.9375 -4.171875 L 3.390625 -4.171875 L 3.390625 0 L 0.8125 0 Z M 3.390625 -6.234375 L 4.109375 -6.234375 C 4.679688 -6.234375 5.148438 -6.347656 5.515625 -6.578125 C 5.890625 -6.804688 6.078125 -7.1875 6.078125 -7.71875 C 6.078125 -8.25 5.890625 -8.628906 5.515625 -8.859375 C 5.148438 -9.097656 4.679688 -9.21875 4.109375 -9.21875 L 3.390625 -9.21875 Z M 3.390625 -6.234375 "/></g></g></g><g fill="rgb(0%, 0%, 0%)" fill-opacity="1"><g transform="translate(325.858204, 241.982277)"><g/></g></g><g fill="rgb(0%, 0%, 0%)" fill-opacity="1"><g transform="translate(325.518294, 205.504764)"><g/></g></g><g fill="rgb(0%, 0%, 0%)" fill-opacity="1"><g transform="translate(278.478324, 158.32616)"><g><path d="M 7.265625 -11.265625 L 7.265625 -9.015625 L 3.390625 -9.015625 L 3.390625 -6.78125 L 7.09375 -6.78125 L 7.09375 -4.515625 L 3.390625 -4.515625 L 3.390625 -2.25 L 7.265625 -2.25 L 7.265625 0 L 0.8125 0 L 0.8125 -11.265625 Z M 7.265625 -11.265625 "/></g></g></g><g fill="rgb(0%, 0%, 0%)" fill-opacity="1"><g transform="translate(287.07661, 158.32616)"><g><path d="M 3.390625 -6.984375 L 3.390625 0 L 0.8125 0 L 0.8125 -11.265625 L 3.390625 -11.265625 L 7.859375 -4.28125 L 7.890625 -4.28125 L 7.890625 -11.265625 L 10.453125 -11.265625 L 10.453125 0 L 7.890625 0 L 3.40625 -6.984375 Z M 3.390625 -6.984375 "/></g></g></g><g fill="rgb(0%, 0%, 0%)" fill-opacity="1"><g transform="translate(299.032212, 158.32616)"><g><path d="M 0.8125 -11.265625 L 4.078125 -11.265625 C 5.648438 -11.265625 6.988281 -10.726562 8.09375 -9.65625 C 9.207031 -8.59375 9.765625 -7.253906 9.765625 -5.640625 C 9.765625 -4.015625 9.210938 -2.664062 8.109375 -1.59375 C 7.003906 -0.53125 5.660156 0 4.078125 0 L 0.8125 0 Z M 3.390625 -2.296875 L 3.78125 -2.296875 C 4.71875 -2.296875 5.484375 -2.609375 6.078125 -3.234375 C 6.679688 -3.867188 6.984375 -4.664062 6.984375 -5.625 C 6.984375 -6.582031 6.6875 -7.378906 6.09375 -8.015625 C 5.5 -8.648438 4.726562 -8.96875 3.78125 -8.96875 L 3.390625 -8.96875 Z M 3.390625 -2.296875 "/></g></g></g><g fill="rgb(0%, 0%, 0%)" fill-opacity="1"><g transform="translate(309.786824, 158.32616)"><g><path d="M 0.3125 -5.640625 C 0.3125 -7.265625 0.863281 -8.640625 1.96875 -9.765625 C 3.082031 -10.898438 4.425781 -11.46875 6 -11.46875 C 7.570312 -11.46875 8.90625 -10.90625 10 -9.78125 C 11.101562 -8.65625 11.65625 -7.273438 11.65625 -5.640625 C 11.65625 -3.992188 11.113281 -2.609375 10.03125 -1.484375 C 8.945312 -0.359375 7.601562 0.203125 6 0.203125 C 4.34375 0.203125 2.976562 -0.351562 1.90625 -1.46875 C 0.84375 -2.582031 0.3125 -3.972656 0.3125 -5.640625 Z M 3.09375 -5.640625 C 3.09375 -5.046875 3.179688 -4.503906 3.359375 -4.015625 C 3.535156 -3.535156 3.851562 -3.125 4.3125 -2.78125 C 4.769531 -2.445312 5.332031 -2.28125 6 -2.28125 C 6.945312 -2.28125 7.664062 -2.609375 8.15625 -3.265625 C 8.644531 -3.921875 8.890625 -4.710938 8.890625 -5.640625 C 8.890625 -6.554688 8.640625 -7.34375 8.140625 -8 C 7.648438 -8.664062 6.9375 -9 6 -9 C 5.070312 -9 4.351562 -8.664062 3.84375 -8 C 3.34375 -7.34375 3.09375 -6.554688 3.09375 -5.640625 Z M 3.09375 -5.640625 "/></g></g></g><g fill="rgb(0%, 0%, 0%)" fill-opacity="1"><g transform="translate(322.438456, 158.32616)"><g><path d="M 6.8125 -2.328125 C 7.207031 -2.328125 7.585938 -2.382812 7.953125 -2.5 C 8.316406 -2.613281 8.585938 -2.726562 8.765625 -2.84375 L 9.03125 -3.015625 L 10.125 -0.828125 C 10.082031 -0.804688 10.03125 -0.769531 9.96875 -0.71875 C 9.90625 -0.675781 9.753906 -0.59375 9.515625 -0.46875 C 9.285156 -0.34375 9.039062 -0.234375 8.78125 -0.140625 C 8.519531 -0.0546875 8.171875 0.0195312 7.734375 0.09375 C 7.304688 0.164062 6.867188 0.203125 6.421875 0.203125 C 5.367188 0.203125 4.375 -0.0507812 3.4375 -0.5625 C 2.5 -1.082031 1.742188 -1.789062 1.171875 -2.6875 C 0.597656 -3.59375 0.3125 -4.566406 0.3125 -5.609375 C 0.3125 -6.398438 0.476562 -7.160156 0.8125 -7.890625 C 1.15625 -8.617188 1.601562 -9.242188 2.15625 -9.765625 C 2.71875 -10.285156 3.375 -10.695312 4.125 -11 C 4.875 -11.3125 5.640625 -11.46875 6.421875 -11.46875 C 7.148438 -11.46875 7.820312 -11.378906 8.4375 -11.203125 C 9.050781 -11.035156 9.484375 -10.863281 9.734375 -10.6875 L 10.125 -10.4375 L 9.03125 -8.25 C 8.96875 -8.300781 8.867188 -8.363281 8.734375 -8.4375 C 8.609375 -8.519531 8.351562 -8.625 7.96875 -8.75 C 7.59375 -8.875 7.207031 -8.9375 6.8125 -8.9375 C 6.195312 -8.9375 5.640625 -8.835938 5.140625 -8.640625 C 4.648438 -8.441406 4.257812 -8.175781 3.96875 -7.84375 C 3.6875 -7.519531 3.46875 -7.171875 3.3125 -6.796875 C 3.164062 -6.421875 3.09375 -6.035156 3.09375 -5.640625 C 3.09375 -4.785156 3.414062 -4.019531 4.0625 -3.34375 C 4.707031 -2.664062 5.625 -2.328125 6.8125 -2.328125 Z M 6.8125 -2.328125 "/></g></g></g><g fill="rgb(0%, 0%, 0%)" fill-opacity="1"><g transform="translate(333.397783, 158.32616)"><g><path d="M 6.546875 -11.265625 L 11.09375 0 L 8.328125 0 L 7.5 -2.25 L 3.203125 -2.25 L 2.375 0 L -0.375 0 L 4.171875 -11.265625 Z M 6.625 -4.5 L 5.359375 -7.78125 L 5.34375 -7.78125 L 4.078125 -4.5 Z M 6.625 -4.5 "/></g></g></g><g fill="rgb(0%, 0%, 0%)" fill-opacity="1"><g transform="translate(344.780186, 158.32616)"><g><path d="M 0.8125 -11.265625 L 4.84375 -11.265625 C 5.925781 -11.265625 6.804688 -10.972656 7.484375 -10.390625 C 8.171875 -9.816406 8.515625 -8.992188 8.515625 -7.921875 C 8.515625 -7.085938 8.304688 -6.390625 7.890625 -5.828125 C 7.484375 -5.273438 6.925781 -4.882812 6.21875 -4.65625 L 10.09375 0 L 6.828125 0 L 3.390625 -4.453125 L 3.390625 0 L 0.8125 0 Z M 3.390625 -6.265625 L 3.6875 -6.265625 C 3.925781 -6.265625 4.125 -6.269531 4.28125 -6.28125 C 4.445312 -6.289062 4.632812 -6.320312 4.84375 -6.375 C 5.050781 -6.425781 5.21875 -6.503906 5.34375 -6.609375 C 5.476562 -6.710938 5.585938 -6.859375 5.671875 -7.046875 C 5.765625 -7.234375 5.8125 -7.460938 5.8125 -7.734375 C 5.8125 -8.015625 5.765625 -8.25 5.671875 -8.4375 C 5.585938 -8.625 5.476562 -8.769531 5.34375 -8.875 C 5.21875 -8.976562 5.050781 -9.054688 4.84375 -9.109375 C 4.632812 -9.160156 4.445312 -9.191406 4.28125 -9.203125 C 4.125 -9.210938 3.925781 -9.21875 3.6875 -9.21875 L 3.390625 -9.21875 Z M 3.390625 -6.265625 "/></g></g></g><g fill="rgb(0%, 0%, 0%)" fill-opacity="1"><g transform="translate(355.234543, 158.32616)"><g><path d="M 0.8125 -11.265625 L 4.9375 -11.265625 C 6.082031 -11.265625 7.007812 -10.96875 7.71875 -10.375 C 8.425781 -9.78125 8.78125 -8.921875 8.78125 -7.796875 C 8.78125 -6.671875 8.421875 -5.785156 7.703125 -5.140625 C 6.984375 -4.492188 6.0625 -4.171875 4.9375 -4.171875 L 3.390625 -4.171875 L 3.390625 0 L 0.8125 0 Z M 3.390625 -6.234375 L 4.109375 -6.234375 C 4.679688 -6.234375 5.148438 -6.347656 5.515625 -6.578125 C 5.890625 -6.804688 6.078125 -7.1875 6.078125 -7.71875 C 6.078125 -8.25 5.890625 -8.628906 5.515625 -8.859375 C 5.148438 -9.097656 4.679688 -9.21875 4.109375 -9.21875 L 3.390625 -9.21875 Z M 3.390625 -6.234375 "/></g></g></g><g fill="rgb(0%, 0%, 0%)" fill-opacity="1"><g transform="translate(321.741347, 175.221779)"><g/></g></g><g fill="rgb(0%, 0%, 0%)" fill-opacity="1"><g transform="translate(321.401469, 138.744249)"><g/></g></g><g fill="rgb(0%, 0%, 0%)" fill-opacity="1"><g transform="translate(289.529487, 82.825029)"><g><path d="M 4.96875 -11.46875 C 5.582031 -11.46875 6.179688 -11.378906 6.765625 -11.203125 C 7.347656 -11.023438 7.78125 -10.847656 8.0625 -10.671875 L 8.46875 -10.40625 L 7.421875 -8.359375 C 7.347656 -8.410156 7.238281 -8.476562 7.09375 -8.5625 C 6.945312 -8.65625 6.671875 -8.773438 6.265625 -8.921875 C 5.867188 -9.066406 5.492188 -9.140625 5.140625 -9.140625 C 4.710938 -9.140625 4.382812 -9.046875 4.15625 -8.859375 C 3.925781 -8.679688 3.8125 -8.4375 3.8125 -8.125 C 3.8125 -7.96875 3.863281 -7.820312 3.96875 -7.6875 C 4.082031 -7.5625 4.269531 -7.421875 4.53125 -7.265625 C 4.800781 -7.117188 5.035156 -7 5.234375 -6.90625 C 5.429688 -6.820312 5.738281 -6.6875 6.15625 -6.5 C 6.882812 -6.1875 7.503906 -5.765625 8.015625 -5.234375 C 8.535156 -4.703125 8.796875 -4.097656 8.796875 -3.421875 C 8.796875 -2.773438 8.675781 -2.210938 8.4375 -1.734375 C 8.207031 -1.253906 7.890625 -0.875 7.484375 -0.59375 C 7.078125 -0.320312 6.628906 -0.125 6.140625 0 C 5.648438 0.132812 5.117188 0.203125 4.546875 0.203125 C 4.054688 0.203125 3.570312 0.148438 3.09375 0.046875 C 2.625 -0.046875 2.226562 -0.164062 1.90625 -0.3125 C 1.59375 -0.46875 1.304688 -0.617188 1.046875 -0.765625 C 0.796875 -0.910156 0.609375 -1.035156 0.484375 -1.140625 L 0.3125 -1.28125 L 1.59375 -3.4375 C 1.707031 -3.351562 1.859375 -3.238281 2.046875 -3.09375 C 2.234375 -2.945312 2.570312 -2.753906 3.0625 -2.515625 C 3.550781 -2.285156 3.984375 -2.171875 4.359375 -2.171875 C 5.441406 -2.171875 5.984375 -2.539062 5.984375 -3.28125 C 5.984375 -3.4375 5.941406 -3.578125 5.859375 -3.703125 C 5.785156 -3.835938 5.648438 -3.96875 5.453125 -4.09375 C 5.253906 -4.226562 5.082031 -4.332031 4.9375 -4.40625 C 4.789062 -4.488281 4.546875 -4.609375 4.203125 -4.765625 C 3.859375 -4.929688 3.601562 -5.054688 3.4375 -5.140625 C 2.757812 -5.472656 2.234375 -5.890625 1.859375 -6.390625 C 1.484375 -6.898438 1.296875 -7.445312 1.296875 -8.03125 C 1.296875 -9.039062 1.664062 -9.863281 2.40625 -10.5 C 3.15625 -11.144531 4.007812 -11.46875 4.96875 -11.46875 Z M 4.96875 -11.46875 "/></g></g></g><g fill="rgb(0%, 0%, 0%)" fill-opacity="1"><g transform="translate(299.378651, 82.825029)"><g><path d="M 7.265625 -11.265625 L 7.265625 -9.015625 L 3.390625 -9.015625 L 3.390625 -6.78125 L 7.09375 -6.78125 L 7.09375 -4.515625 L 3.390625 -4.515625 L 3.390625 -2.25 L 7.265625 -2.25 L 7.265625 0 L 0.8125 0 L 0.8125 -11.265625 Z M 7.265625 -11.265625 "/></g></g></g><g fill="rgb(0%, 0%, 0%)" fill-opacity="1"><g transform="translate(307.97288, 82.825029)"><g><path d="M 7.265625 -11.265625 L 7.265625 -9.015625 L 3.390625 -9.015625 L 3.390625 -6.78125 L 7.09375 -6.78125 L 7.09375 -4.515625 L 3.390625 -4.515625 L 3.390625 -2.25 L 7.265625 -2.25 L 7.265625 0 L 0.8125 0 L 0.8125 -11.265625 Z M 7.265625 -11.265625 "/></g></g></g><g fill="rgb(0%, 0%, 0%)" fill-opacity="1"><g transform="translate(316.567108, 82.825029)"><g><path d="M 0.8125 -11.265625 L 4.078125 -11.265625 C 5.648438 -11.265625 6.988281 -10.726562 8.09375 -9.65625 C 9.207031 -8.59375 9.765625 -7.253906 9.765625 -5.640625 C 9.765625 -4.015625 9.210938 -2.664062 8.109375 -1.59375 C 7.003906 -0.53125 5.660156 0 4.078125 0 L 0.8125 0 Z M 3.390625 -2.296875 L 3.78125 -2.296875 C 4.71875 -2.296875 5.484375 -2.609375 6.078125 -3.234375 C 6.679688 -3.867188 6.984375 -4.664062 6.984375 -5.625 C 6.984375 -6.582031 6.6875 -7.378906 6.09375 -8.015625 C 5.5 -8.648438 4.726562 -8.96875 3.78125 -8.96875 L 3.390625 -8.96875 Z M 3.390625 -2.296875 "/></g></g></g><g fill="rgb(0%, 0%, 0%)" fill-opacity="1"><g transform="translate(327.316557, 82.825029)"><g><path d="M 4.96875 -11.46875 C 5.582031 -11.46875 6.179688 -11.378906 6.765625 -11.203125 C 7.347656 -11.023438 7.78125 -10.847656 8.0625 -10.671875 L 8.46875 -10.40625 L 7.421875 -8.359375 C 7.347656 -8.410156 7.238281 -8.476562 7.09375 -8.5625 C 6.945312 -8.65625 6.671875 -8.773438 6.265625 -8.921875 C 5.867188 -9.066406 5.492188 -9.140625 5.140625 -9.140625 C 4.710938 -9.140625 4.382812 -9.046875 4.15625 -8.859375 C 3.925781 -8.679688 3.8125 -8.4375 3.8125 -8.125 C 3.8125 -7.96875 3.863281 -7.820312 3.96875 -7.6875 C 4.082031 -7.5625 4.269531 -7.421875 4.53125 -7.265625 C 4.800781 -7.117188 5.035156 -7 5.234375 -6.90625 C 5.429688 -6.820312 5.738281 -6.6875 6.15625 -6.5 C 6.882812 -6.1875 7.503906 -5.765625 8.015625 -5.234375 C 8.535156 -4.703125 8.796875 -4.097656 8.796875 -3.421875 C 8.796875 -2.773438 8.675781 -2.210938 8.4375 -1.734375 C 8.207031 -1.253906 7.890625 -0.875 7.484375 -0.59375 C 7.078125 -0.320312 6.628906 -0.125 6.140625 0 C 5.648438 0.132812 5.117188 0.203125 4.546875 0.203125 C 4.054688 0.203125 3.570312 0.148438 3.09375 0.046875 C 2.625 -0.046875 2.226562 -0.164062 1.90625 -0.3125 C 1.59375 -0.46875 1.304688 -0.617188 1.046875 -0.765625 C 0.796875 -0.910156 0.609375 -1.035156 0.484375 -1.140625 L 0.3125 -1.28125 L 1.59375 -3.4375 C 1.707031 -3.351562 1.859375 -3.238281 2.046875 -3.09375 C 2.234375 -2.945312 2.570312 -2.753906 3.0625 -2.515625 C 3.550781 -2.285156 3.984375 -2.171875 4.359375 -2.171875 C 5.441406 -2.171875 5.984375 -2.539062 5.984375 -3.28125 C 5.984375 -3.4375 5.941406 -3.578125 5.859375 -3.703125 C 5.785156 -3.835938 5.648438 -3.96875 5.453125 -4.09375 C 5.253906 -4.226562 5.082031 -4.332031 4.9375 -4.40625 C 4.789062 -4.488281 4.546875 -4.609375 4.203125 -4.765625 C 3.859375 -4.929688 3.601562 -5.054688 3.4375 -5.140625 C 2.757812 -5.472656 2.234375 -5.890625 1.859375 -6.390625 C 1.484375 -6.898438 1.296875 -7.445312 1.296875 -8.03125 C 1.296875 -9.039062 1.664062 -9.863281 2.40625 -10.5 C 3.15625 -11.144531 4.007812 -11.46875 4.96875 -11.46875 Z M 4.96875 -11.46875 "/></g></g></g><g fill="rgb(0%, 0%, 0%)" fill-opacity="1"><g transform="translate(313.341985, 99.325028)"><g/></g></g><g fill="rgb(0%, 0%, 0%)" fill-opacity="1"><g transform="translate(313.006685, 63.530839)"><g/></g></g></svg>